<svg width="28" height="30" viewBox="0 0 28 30" fill="none" xmlns="http://www.w3.org/2000/svg">
<path d="M9.17731 29.4729C8.94406 26.0663 9.5375 22.6538 10.9071 19.5262C11.361 18.5519 11.8979 17.9702 12.345 17.9702C12.3921 17.9702 12.4389 17.9772 12.484 17.991C12.7621 18.0762 12.9549 18.412 13.0271 18.9368C13.2636 20.6129 13.589 22.2752 14.0018 23.9167C14.0004 23.9195 13.9986 23.9221 13.9964 23.9244C12.641 25.9783 11.0195 27.8436 9.17424 29.4714L9.17731 29.4729ZM21.2235 27.8808C18.872 26.283 16.9931 24.0821 15.7838 21.5086C15.4243 20.7156 15.2023 19.7413 15.6593 19.3956C15.7578 19.3233 15.8776 19.286 15.9996 19.2895C16.2312 19.3029 16.4553 19.3768 16.6494 19.5039C17.9051 20.271 19.2166 20.9427 20.5729 21.5132V21.5178C21.0961 23.5946 21.315 25.7365 21.2227 27.8762L21.2235 27.8808ZM5.54956 19.6676C3.68058 19.6831 1.81677 19.4689 0 19.0298C2.68004 16.5884 5.92395 14.8506 9.44077 13.9723C9.77065 13.8978 10.1073 13.8577 10.4455 13.8524C11.0599 13.8524 11.4693 14.0299 11.5884 14.3527C11.6944 14.6423 11.5561 15.0188 11.1982 15.4115C10.0041 16.7407 8.88134 18.1325 7.83467 19.5807H7.82468C7.04966 19.6384 6.2854 19.6676 5.54956 19.6676ZM22.5585 19.0459C21.7232 19.0501 20.8899 18.9627 20.0736 18.7855C19.1258 18.5742 18.5374 18.1308 18.5712 17.6575C18.5927 17.3732 18.8431 17.1042 19.2587 16.9183C20.5742 16.3462 21.846 15.6785 23.0639 14.9205H23.07C24.7071 15.7331 26.1925 16.8211 27.4613 18.1369C25.8963 18.7371 24.2345 19.0452 22.5585 19.0459ZM19.5751 14.3511C19.5042 14.3548 19.4334 14.3434 19.3672 14.3177C19.301 14.292 19.241 14.2526 19.1911 14.2021C19.0935 14.047 19.0354 13.8703 19.022 13.6876C19.0086 13.5048 19.0403 13.3216 19.1143 13.154C19.5435 11.6248 19.8958 10.0751 20.1697 8.51063H20.1766C21.788 7.66093 23.5313 7.08942 25.3329 6.82019C24.4464 9.4267 22.9328 11.7752 20.9255 13.6588C20.565 14.0336 20.0898 14.2772 19.5751 14.3511ZM12.9886 11.734C12.9029 11.7337 12.8172 11.7283 12.7321 11.7179C11.0094 11.5224 9.27726 11.4229 7.54356 11.4197L7.53818 11.412C5.8385 9.43945 4.45884 7.21221 3.44956 4.81163C5.15147 5.22276 6.80346 5.81846 8.37618 6.58814C9.95322 7.34245 11.4179 8.31219 12.7283 9.46957C13.6031 10.261 13.9795 10.991 13.7399 11.4136C13.654 11.5285 13.5393 11.6187 13.4074 11.6749C13.2754 11.7312 13.131 11.7516 12.9886 11.734ZM17.0757 11.4443C16.823 11.4443 16.548 11.2192 16.3015 10.8112C15.4154 9.35662 14.4566 7.94766 13.4288 6.58967V6.58506V6.58045C13.7806 4.38588 14.4994 2.26625 15.5549 0.31044C16.9954 3.17852 17.7762 6.33269 17.84 9.5418C17.8346 10.6621 17.5596 11.3898 17.1241 11.4412C17.1081 11.4432 17.0919 11.4442 17.0757 11.4443Z" fill="#146E37"/>
<path d="M13.9496 30C12.3715 29.9768 10.8054 29.7226 9.30098 29.2454C11.143 27.6211 12.7614 25.7594 14.1139 23.7092L14.1193 23.7015C14.2115 24.0611 14.3421 24.5007 14.4565 24.8887L14.5095 25.0693C14.9972 26.719 15.6286 28.3825 16.1824 29.7925C15.4463 29.9317 14.6987 30.0011 13.9496 30ZM21.3234 27.6572C21.4151 25.5218 21.1967 23.3845 20.6751 21.3119C20.6754 21.3091 20.6754 21.3062 20.6751 21.3034C20.8817 21.3926 21.1252 21.4863 21.3602 21.5762C21.5031 21.6307 21.6498 21.6876 21.785 21.7414C23.0559 22.2333 24.3575 22.6416 25.6816 22.9639C24.5936 24.8307 23.106 26.4334 21.3257 27.6572H21.3234ZM3.99875 25.8292C2.11262 23.8804 0.781625 21.4626 0.143636 18.8261C1.95613 19.2642 3.81556 19.4779 5.68014 19.4624C6.41444 19.4624 7.17717 19.4332 7.94758 19.3755H7.95757C7.74173 19.676 7.4967 20.0448 7.25782 20.4013L7.06042 20.6964C6.09261 22.1371 5.12019 23.7699 3.99952 25.83L3.99875 25.8292ZM27.545 17.9294C26.2793 16.6202 24.7984 15.538 23.1668 14.7299H23.1599C23.3512 14.6123 23.5693 14.4686 23.7798 14.3288C23.905 14.2458 24.0325 14.1613 24.1523 14.0837C25.3017 13.3252 26.4047 12.4985 27.4551 11.608C27.8171 13.6979 27.8495 15.8317 27.5512 17.9317L27.545 17.9294ZM0 11.8223C0.53399 9.14938 1.7718 6.66755 3.58551 4.63333C4.59229 7.02853 5.96857 9.25084 7.66415 11.2191V11.223H7.6557C7.29316 11.223 6.8561 11.2391 6.43365 11.2545H6.41905L6.08954 11.266C3.99415 11.3452 1.84345 11.5941 0 11.8216V11.8223ZM20.268 8.32388C20.3287 7.96197 20.3909 7.51016 20.4446 7.1106L20.4623 6.98074C20.6874 5.33717 20.8041 3.65518 20.8971 2.08229C22.724 3.24331 24.2688 4.79764 25.4189 6.6319C23.6206 6.90155 21.8807 7.47306 20.2726 8.32234H20.268V8.32388ZM13.544 6.40292C13.3735 6.17932 13.1645 5.92191 12.9618 5.67295C12.8396 5.51928 12.7144 5.3656 12.5977 5.22268C11.3872 3.70205 10.0437 2.279 8.77252 0.967369C10.9555 0.0843708 13.3341 -0.201263 15.664 0.139819C14.612 2.09241 13.8959 4.20808 13.5455 6.39831V6.40522L13.544 6.40292Z" fill="#3FA110"/>
</svg>
